<svg aria-roledescription="er" role="graphics-document document" viewBox="0 0 370.6919250488281 969" style="max-width: 370.692px; background-color: white;" xmlns:xlink="http://www.w3.org/1999/xlink" xmlns="http://www.w3.org/2000/svg" width="100%" id="my-svg"><style>#my-svg{font-family:"trebuchet ms",verdana,arial,sans-serif;font-size:16px;fill:#000000;}#my-svg .error-icon{fill:#552222;}#my-svg .error-text{fill:#552222;stroke:#552222;}#my-svg .edge-thickness-normal{stroke-width:1px;}#my-svg .edge-thickness-thick{stroke-width:3.5px;}#my-svg .edge-pattern-solid{stroke-dasharray:0;}#my-svg .edge-thickness-invisible{stroke-width:0;fill:none;}#my-svg .edge-pattern-dashed{stroke-dasharray:3;}#my-svg .edge-pattern-dotted{stroke-dasharray:2;}#my-svg .marker{fill:#000000;stroke:#000000;}#my-svg .marker.cross{stroke:#000000;}#my-svg svg{font-family:"trebuchet ms",verdana,arial,sans-serif;font-size:16px;}#my-svg p{margin:0;}#my-svg .entityBox{fill:#cde498;stroke:#13540c;}#my-svg .attributeBoxOdd{fill:#ffffff;stroke:#13540c;}#my-svg .attributeBoxEven{fill:#f2f2f2;stroke:#13540c;}#my-svg .relationshipLabelBox{fill:hsl(78.1578947368, 58.4615384615%, 84.5098039216%);opacity:0.7;background-color:hsl(78.1578947368, 58.4615384615%, 84.5098039216%);}#my-svg .relationshipLabelBox rect{opacity:0.5;}#my-svg .relationshipLine{stroke:#000000;}#my-svg .entityTitleText{text-anchor:middle;font-size:18px;fill:#000000;}#my-svg #MD_PARENT_START{fill:#f5f5f5!important;stroke:#000000!important;stroke-width:1;}#my-svg #MD_PARENT_END{fill:#f5f5f5!important;stroke:#000000!important;stroke-width:1;}#my-svg :root{--mermaid-font-family:"trebuchet ms",verdana,arial,sans-serif;}</style><g/><defs><marker orient="auto" markerHeight="240" markerWidth="190" refY="7" refX="0" id="MD_PARENT_START"><path d="M 18,7 L9,13 L1,7 L9,1 Z"/></marker></defs><defs><marker orient="auto" markerHeight="28" markerWidth="20" refY="7" refX="19" id="MD_PARENT_END"><path d="M 18,7 L9,13 L1,7 L9,1 Z"/></marker></defs><defs><marker orient="auto" markerHeight="18" markerWidth="18" refY="9" refX="0" id="ONLY_ONE_START"><path d="M9,0 L9,18 M15,0 L15,18" fill="none" stroke="gray"/></marker></defs><defs><marker orient="auto" markerHeight="18" markerWidth="18" refY="9" refX="18" id="ONLY_ONE_END"><path d="M3,0 L3,18 M9,0 L9,18" fill="none" stroke="gray"/></marker></defs><defs><marker orient="auto" markerHeight="18" markerWidth="30" refY="9" refX="0" id="ZERO_OR_ONE_START"><circle r="6" cy="9" cx="21" fill="white" stroke="gray"/><path d="M9,0 L9,18" fill="none" stroke="gray"/></marker></defs><defs><marker orient="auto" markerHeight="18" markerWidth="30" refY="9" refX="30" id="ZERO_OR_ONE_END"><circle r="6" cy="9" cx="9" fill="white" stroke="gray"/><path d="M21,0 L21,18" fill="none" stroke="gray"/></marker></defs><defs><marker orient="auto" markerHeight="36" markerWidth="45" refY="18" refX="18" id="ONE_OR_MORE_START"><path d="M0,18 Q 18,0 36,18 Q 18,36 0,18 M42,9 L42,27" fill="none" stroke="gray"/></marker></defs><defs><marker orient="auto" markerHeight="36" markerWidth="45" refY="18" refX="27" id="ONE_OR_MORE_END"><path d="M3,9 L3,27 M9,18 Q27,0 45,18 Q27,36 9,18" fill="none" stroke="gray"/></marker></defs><defs><marker orient="auto" markerHeight="36" markerWidth="57" refY="18" refX="18" id="ZERO_OR_MORE_START"><circle r="6" cy="18" cx="48" fill="white" stroke="gray"/><path d="M0,18 Q18,0 36,18 Q18,36 0,18" fill="none" stroke="gray"/></marker></defs><defs><marker orient="auto" markerHeight="36" markerWidth="57" refY="18" refX="39" id="ZERO_OR_MORE_END"><circle r="6" cy="18" cx="9" fill="white" stroke="gray"/><path d="M21,18 Q39,0 57,18 Q39,36 21,18" fill="none" stroke="gray"/></marker></defs><path style="stroke: gray; fill: none;" marker-start="url(#ZERO_OR_MORE_START)" marker-end="url(#ZERO_OR_MORE_END)" d="M104.614,191.869L91.062,205.224C77.511,218.579,50.409,245.29,40.404,266.978C30.399,288.667,37.491,305.333,41.037,313.667L44.583,322" class="er relationshipLine"/><path style="stroke: gray; fill: none;" marker-start="url(#ZERO_OR_MORE_START)" marker-end="url(#ZERO_OR_MORE_END)" d="M209.966,222L212.726,230.333C215.485,238.667,221.004,255.333,229.198,275.667C237.392,296,248.262,320,253.697,332L259.132,344" class="er relationshipLine"/><path style="stroke: gray; fill: none;" marker-start="url(#ZERO_OR_ONE_START)" marker-end="url(#ONLY_ONE_END)" d="M103.877,322L107.652,313.667C111.426,305.333,118.974,288.667,125.508,272C132.041,255.333,137.56,238.667,140.319,230.333L143.079,222" class="er relationshipLine"/><path style="stroke: gray; fill: none;" marker-start="url(#ZERO_OR_MORE_START)" marker-end="url(#ZERO_OR_MORE_END)" d="M311.817,557L314.804,548.667C317.791,540.333,323.765,523.667,321.645,503.333C319.526,483,309.313,459,304.207,447L299.1,435" class="er relationshipLine"/><path style="stroke: gray; fill: none;" marker-start="url(#ZERO_OR_ONE_START)" marker-end="url(#ZERO_OR_ONE_END)" d="M247.66,736L244.673,744.333C241.686,752.667,235.712,769.333,236.638,786C237.563,802.667,245.388,819.333,249.3,827.667L253.213,836" class="er relationshipLine"/><path style="stroke: gray; fill: none;" marker-start="url(#ZERO_OR_ONE_START)" marker-end="url(#ONLY_ONE_END)" d="M299.1,344L304.207,332C309.313,320,319.526,296,311.081,270.645C302.636,245.29,275.534,218.579,261.983,205.224L248.432,191.869" class="er relationshipLine"/><path style="stroke: gray; fill: none;" marker-start="url(#ZERO_OR_ONE_START)" marker-end="url(#ONLY_ONE_END)" d="M260.377,435L255.271,447C250.164,459,239.951,483,237.832,503.333C235.712,523.667,241.686,540.333,244.673,548.667L247.66,557" class="er relationshipLine"/><path style="stroke: gray; fill: none;" marker-start="url(#ZERO_OR_MORE_START)" marker-end="url(#ZERO_OR_MORE_END)" d="M306.264,836L310.177,827.667C314.089,819.333,321.914,802.667,322.839,786C323.765,769.333,317.791,752.667,314.804,744.333L311.817,736" class="er relationshipLine"/><g transform="translate(104.6135368347168,20 )" id="entity-user-dad033c9-7a45-5f6a-ab5a-b5def405b2a6"><rect height="202" width="143.81800842285156" y="0" x="0" class="er entityBox"/><text style="dominant-baseline: middle; text-anchor: middle; font-size: 12px;" transform="translate(71.90900421142578,12)" y="0" x="0" id="text-entity-user-dad033c9-7a45-5f6a-ab5a-b5def405b2a6" class="er entityLabel">user</text><rect height="23" width="54.095550537109375" y="24" x="0" class="er attributeBoxOdd"/><text style="dominant-baseline: middle; font-size: 10.2px;" transform="translate(5,35.5)" y="0" x="0" id="text-entity-user-dad033c9-7a45-5f6a-ab5a-b5def405b2a6-attr-1-type" class="er entityLabel">String</text><rect height="23" width="67.14433288574219" y="24" x="54.095550537109375" class="er attributeBoxOdd"/><text style="dominant-baseline: middle; font-size: 10.2px;" transform="translate(59.095550537109375,35.5)" y="0" x="0" id="text-entity-user-dad033c9-7a45-5f6a-ab5a-b5def405b2a6-attr-1-name" class="er entityLabel">id</text><rect height="23" width="22.578125" y="24" x="121.23988342285156" class="er attributeBoxOdd"/><text style="dominant-baseline: middle; font-size: 10.2px;" transform="translate(126.23988342285156,35.5)" y="0" x="0" id="text-entity-user-dad033c9-7a45-5f6a-ab5a-b5def405b2a6-attr-1-comment" class="er entityLabel">🗝️</text><rect height="22" width="54.095550537109375" y="47" x="0" class="er attributeBoxEven"/><text style="dominant-baseline: middle; font-size: 10.2px;" transform="translate(5,58)" y="0" x="0" id="text-entity-user-dad033c9-7a45-5f6a-ab5a-b5def405b2a6-attr-2-type" class="er entityLabel">String</text><rect height="22" width="67.14433288574219" y="47" x="54.095550537109375" class="er attributeBoxEven"/><text style="dominant-baseline: middle; font-size: 10.2px;" transform="translate(59.095550537109375,58)" y="0" x="0" id="text-entity-user-dad033c9-7a45-5f6a-ab5a-b5def405b2a6-attr-2-name" class="er entityLabel">firstname</text><rect height="22" width="22.578125" y="47" x="121.23988342285156" class="er attributeBoxEven"/><text style="dominant-baseline: middle; font-size: 10.2px;" transform="translate(126.23988342285156,58)" y="0" x="0" id="text-entity-user-dad033c9-7a45-5f6a-ab5a-b5def405b2a6-attr-2-comment" class="er entityLabel"/><rect height="22" width="54.095550537109375" y="69" x="0" class="er attributeBoxOdd"/><text style="dominant-baseline: middle; font-size: 10.2px;" transform="translate(5,80)" y="0" x="0" id="text-entity-user-dad033c9-7a45-5f6a-ab5a-b5def405b2a6-attr-3-type" class="er entityLabel">String</text><rect height="22" width="67.14433288574219" y="69" x="54.095550537109375" class="er attributeBoxOdd"/><text style="dominant-baseline: middle; font-size: 10.2px;" transform="translate(59.095550537109375,80)" y="0" x="0" id="text-entity-user-dad033c9-7a45-5f6a-ab5a-b5def405b2a6-attr-3-name" class="er entityLabel">lastname</text><rect height="22" width="22.578125" y="69" x="121.23988342285156" class="er attributeBoxOdd"/><text style="dominant-baseline: middle; font-size: 10.2px;" transform="translate(126.23988342285156,80)" y="0" x="0" id="text-entity-user-dad033c9-7a45-5f6a-ab5a-b5def405b2a6-attr-3-comment" class="er entityLabel"/><rect height="22" width="54.095550537109375" y="91" x="0" class="er attributeBoxEven"/><text style="dominant-baseline: middle; font-size: 10.2px;" transform="translate(5,102)" y="0" x="0" id="text-entity-user-dad033c9-7a45-5f6a-ab5a-b5def405b2a6-attr-4-type" class="er entityLabel">String</text><rect height="22" width="67.14433288574219" y="91" x="54.095550537109375" class="er attributeBoxEven"/><text style="dominant-baseline: middle; font-size: 10.2px;" transform="translate(59.095550537109375,102)" y="0" x="0" id="text-entity-user-dad033c9-7a45-5f6a-ab5a-b5def405b2a6-attr-4-name" class="er entityLabel">email</text><rect height="22" width="22.578125" y="91" x="121.23988342285156" class="er attributeBoxEven"/><text style="dominant-baseline: middle; font-size: 10.2px;" transform="translate(126.23988342285156,102)" y="0" x="0" id="text-entity-user-dad033c9-7a45-5f6a-ab5a-b5def405b2a6-attr-4-comment" class="er entityLabel"/><rect height="22" width="54.095550537109375" y="113" x="0" class="er attributeBoxOdd"/><text style="dominant-baseline: middle; font-size: 10.2px;" transform="translate(5,124)" y="0" x="0" id="text-entity-user-dad033c9-7a45-5f6a-ab5a-b5def405b2a6-attr-5-type" class="er entityLabel">String</text><rect height="22" width="67.14433288574219" y="113" x="54.095550537109375" class="er attributeBoxOdd"/><text style="dominant-baseline: middle; font-size: 10.2px;" transform="translate(59.095550537109375,124)" y="0" x="0" id="text-entity-user-dad033c9-7a45-5f6a-ab5a-b5def405b2a6-attr-5-name" class="er entityLabel">password</text><rect height="22" width="22.578125" y="113" x="121.23988342285156" class="er attributeBoxOdd"/><text style="dominant-baseline: middle; font-size: 10.2px;" transform="translate(126.23988342285156,124)" y="0" x="0" id="text-entity-user-dad033c9-7a45-5f6a-ab5a-b5def405b2a6-attr-5-comment" class="er entityLabel"/><rect height="23" width="54.095550537109375" y="135" x="0" class="er attributeBoxEven"/><text style="dominant-baseline: middle; font-size: 10.2px;" transform="translate(5,146.5)" y="0" x="0" id="text-entity-user-dad033c9-7a45-5f6a-ab5a-b5def405b2a6-attr-6-type" class="er entityLabel">String</text><rect height="23" width="67.14433288574219" y="135" x="54.095550537109375" class="er attributeBoxEven"/><text style="dominant-baseline: middle; font-size: 10.2px;" transform="translate(59.095550537109375,146.5)" y="0" x="0" id="text-entity-user-dad033c9-7a45-5f6a-ab5a-b5def405b2a6-attr-6-name" class="er entityLabel">profilephoto</text><rect height="23" width="22.578125" y="135" x="121.23988342285156" class="er attributeBoxEven"/><text style="dominant-baseline: middle; font-size: 10.2px;" transform="translate(126.23988342285156,146.5)" y="0" x="0" id="text-entity-user-dad033c9-7a45-5f6a-ab5a-b5def405b2a6-attr-6-comment" class="er entityLabel">❓</text><rect height="22" width="54.095550537109375" y="158" x="0" class="er attributeBoxOdd"/><text style="dominant-baseline: middle; font-size: 10.2px;" transform="translate(5,169)" y="0" x="0" id="text-entity-user-dad033c9-7a45-5f6a-ab5a-b5def405b2a6-attr-7-type" class="er entityLabel">Boolean</text><rect height="22" width="67.14433288574219" y="158" x="54.095550537109375" class="er attributeBoxOdd"/><text style="dominant-baseline: middle; font-size: 10.2px;" transform="translate(59.095550537109375,169)" y="0" x="0" id="text-entity-user-dad033c9-7a45-5f6a-ab5a-b5def405b2a6-attr-7-name" class="er entityLabel">isBlocked</text><rect height="22" width="22.578125" y="158" x="121.23988342285156" class="er attributeBoxOdd"/><text style="dominant-baseline: middle; font-size: 10.2px;" transform="translate(126.23988342285156,169)" y="0" x="0" id="text-entity-user-dad033c9-7a45-5f6a-ab5a-b5def405b2a6-attr-7-comment" class="er entityLabel"/><rect height="22" width="54.095550537109375" y="180" x="0" class="er attributeBoxEven"/><text style="dominant-baseline: middle; font-size: 10.2px;" transform="translate(5,191)" y="0" x="0" id="text-entity-user-dad033c9-7a45-5f6a-ab5a-b5def405b2a6-attr-8-type" class="er entityLabel">DateTime</text><rect height="22" width="67.14433288574219" y="180" x="54.095550537109375" class="er attributeBoxEven"/><text style="dominant-baseline: middle; font-size: 10.2px;" transform="translate(59.095550537109375,191)" y="0" x="0" id="text-entity-user-dad033c9-7a45-5f6a-ab5a-b5def405b2a6-attr-8-name" class="er entityLabel">createdAt</text><rect height="22" width="22.578125" y="180" x="121.23988342285156" class="er attributeBoxEven"/><text style="dominant-baseline: middle; font-size: 10.2px;" transform="translate(126.23988342285156,191)" y="0" x="0" id="text-entity-user-dad033c9-7a45-5f6a-ab5a-b5def405b2a6-attr-8-comment" class="er entityLabel"/></g><g transform="translate(20,322 )" id="entity-adress-98d8acae-25a4-5edd-86cf-0f3acfb9aa14"><rect height="135" width="106.61289978027344" y="0" x="0" class="er entityBox"/><text style="dominant-baseline: middle; text-anchor: middle; font-size: 12px;" transform="translate(53.30644989013672,12)" y="0" x="0" id="text-entity-adress-98d8acae-25a4-5edd-86cf-0f3acfb9aa14" class="er entityLabel">adress</text><rect height="23" width="37.39605712890625" y="24" x="0" class="er attributeBoxOdd"/><text style="dominant-baseline: middle; font-size: 10.2px;" transform="translate(5,35.5)" y="0" x="0" id="text-entity-adress-98d8acae-25a4-5edd-86cf-0f3acfb9aa14-attr-1-type" class="er entityLabel">String</text><rect height="23" width="46.63871765136719" y="24" x="37.39605712890625" class="er attributeBoxOdd"/><text style="dominant-baseline: middle; font-size: 10.2px;" transform="translate(42.39605712890625,35.5)" y="0" x="0" id="text-entity-adress-98d8acae-25a4-5edd-86cf-0f3acfb9aa14-attr-1-name" class="er entityLabel">id</text><rect height="23" width="22.578125" y="24" x="84.03477478027344" class="er attributeBoxOdd"/><text style="dominant-baseline: middle; font-size: 10.2px;" transform="translate(89.03477478027344,35.5)" y="0" x="0" id="text-entity-adress-98d8acae-25a4-5edd-86cf-0f3acfb9aa14-attr-1-comment" class="er entityLabel">🗝️</text><rect height="22" width="37.39605712890625" y="47" x="0" class="er attributeBoxEven"/><text style="dominant-baseline: middle; font-size: 10.2px;" transform="translate(5,58)" y="0" x="0" id="text-entity-adress-98d8acae-25a4-5edd-86cf-0f3acfb9aa14-attr-2-type" class="er entityLabel">String</text><rect height="22" width="46.63871765136719" y="47" x="37.39605712890625" class="er attributeBoxEven"/><text style="dominant-baseline: middle; font-size: 10.2px;" transform="translate(42.39605712890625,58)" y="0" x="0" id="text-entity-adress-98d8acae-25a4-5edd-86cf-0f3acfb9aa14-attr-2-name" class="er entityLabel">street</text><rect height="22" width="22.578125" y="47" x="84.03477478027344" class="er attributeBoxEven"/><text style="dominant-baseline: middle; font-size: 10.2px;" transform="translate(89.03477478027344,58)" y="0" x="0" id="text-entity-adress-98d8acae-25a4-5edd-86cf-0f3acfb9aa14-attr-2-comment" class="er entityLabel"/><rect height="22" width="37.39605712890625" y="69" x="0" class="er attributeBoxOdd"/><text style="dominant-baseline: middle; font-size: 10.2px;" transform="translate(5,80)" y="0" x="0" id="text-entity-adress-98d8acae-25a4-5edd-86cf-0f3acfb9aa14-attr-3-type" class="er entityLabel">String</text><rect height="22" width="46.63871765136719" y="69" x="37.39605712890625" class="er attributeBoxOdd"/><text style="dominant-baseline: middle; font-size: 10.2px;" transform="translate(42.39605712890625,80)" y="0" x="0" id="text-entity-adress-98d8acae-25a4-5edd-86cf-0f3acfb9aa14-attr-3-name" class="er entityLabel">city</text><rect height="22" width="22.578125" y="69" x="84.03477478027344" class="er attributeBoxOdd"/><text style="dominant-baseline: middle; font-size: 10.2px;" transform="translate(89.03477478027344,80)" y="0" x="0" id="text-entity-adress-98d8acae-25a4-5edd-86cf-0f3acfb9aa14-attr-3-comment" class="er entityLabel"/><rect height="22" width="37.39605712890625" y="91" x="0" class="er attributeBoxEven"/><text style="dominant-baseline: middle; font-size: 10.2px;" transform="translate(5,102)" y="0" x="0" id="text-entity-adress-98d8acae-25a4-5edd-86cf-0f3acfb9aa14-attr-4-type" class="er entityLabel">String</text><rect height="22" width="46.63871765136719" y="91" x="37.39605712890625" class="er attributeBoxEven"/><text style="dominant-baseline: middle; font-size: 10.2px;" transform="translate(42.39605712890625,102)" y="0" x="0" id="text-entity-adress-98d8acae-25a4-5edd-86cf-0f3acfb9aa14-attr-4-name" class="er entityLabel">state</text><rect height="22" width="22.578125" y="91" x="84.03477478027344" class="er attributeBoxEven"/><text style="dominant-baseline: middle; font-size: 10.2px;" transform="translate(89.03477478027344,102)" y="0" x="0" id="text-entity-adress-98d8acae-25a4-5edd-86cf-0f3acfb9aa14-attr-4-comment" class="er entityLabel"/><rect height="22" width="37.39605712890625" y="113" x="0" class="er attributeBoxOdd"/><text style="dominant-baseline: middle; font-size: 10.2px;" transform="translate(5,124)" y="0" x="0" id="text-entity-adress-98d8acae-25a4-5edd-86cf-0f3acfb9aa14-attr-5-type" class="er entityLabel">String</text><rect height="22" width="46.63871765136719" y="113" x="37.39605712890625" class="er attributeBoxOdd"/><text style="dominant-baseline: middle; font-size: 10.2px;" transform="translate(42.39605712890625,124)" y="0" x="0" id="text-entity-adress-98d8acae-25a4-5edd-86cf-0f3acfb9aa14-attr-5-name" class="er entityLabel">zipcode</text><rect height="22" width="22.578125" y="113" x="84.03477478027344" class="er attributeBoxOdd"/><text style="dominant-baseline: middle; font-size: 10.2px;" transform="translate(89.03477478027344,124)" y="0" x="0" id="text-entity-adress-98d8acae-25a4-5edd-86cf-0f3acfb9aa14-attr-5-comment" class="er entityLabel"/></g><g transform="translate(208.78533935546875,557 )" id="entity-book-d404c4f3-6fe8-526d-bf6f-c8280c94ff2e"><rect height="179" width="141.90658569335938" y="0" x="0" class="er entityBox"/><text style="dominant-baseline: middle; text-anchor: middle; font-size: 12px;" transform="translate(70.95329284667969,12)" y="0" x="0" id="text-entity-book-d404c4f3-6fe8-526d-bf6f-c8280c94ff2e" class="er entityLabel">book</text><rect height="23" width="37.39605712890625" y="24" x="0" class="er attributeBoxOdd"/><text style="dominant-baseline: middle; font-size: 10.2px;" transform="translate(5,35.5)" y="0" x="0" id="text-entity-book-d404c4f3-6fe8-526d-bf6f-c8280c94ff2e-attr-1-type" class="er entityLabel">String</text><rect height="23" width="81.93240356445312" y="24" x="37.39605712890625" class="er attributeBoxOdd"/><text style="dominant-baseline: middle; font-size: 10.2px;" transform="translate(42.39605712890625,35.5)" y="0" x="0" id="text-entity-book-d404c4f3-6fe8-526d-bf6f-c8280c94ff2e-attr-1-name" class="er entityLabel">id</text><rect height="23" width="22.578125" y="24" x="119.32846069335938" class="er attributeBoxOdd"/><text style="dominant-baseline: middle; font-size: 10.2px;" transform="translate(124.32846069335938,35.5)" y="0" x="0" id="text-entity-book-d404c4f3-6fe8-526d-bf6f-c8280c94ff2e-attr-1-comment" class="er entityLabel">🗝️</text><rect height="22" width="37.39605712890625" y="47" x="0" class="er attributeBoxEven"/><text style="dominant-baseline: middle; font-size: 10.2px;" transform="translate(5,58)" y="0" x="0" id="text-entity-book-d404c4f3-6fe8-526d-bf6f-c8280c94ff2e-attr-2-type" class="er entityLabel">String</text><rect height="22" width="81.93240356445312" y="47" x="37.39605712890625" class="er attributeBoxEven"/><text style="dominant-baseline: middle; font-size: 10.2px;" transform="translate(42.39605712890625,58)" y="0" x="0" id="text-entity-book-d404c4f3-6fe8-526d-bf6f-c8280c94ff2e-attr-2-name" class="er entityLabel">title</text><rect height="22" width="22.578125" y="47" x="119.32846069335938" class="er attributeBoxEven"/><text style="dominant-baseline: middle; font-size: 10.2px;" transform="translate(124.32846069335938,58)" y="0" x="0" id="text-entity-book-d404c4f3-6fe8-526d-bf6f-c8280c94ff2e-attr-2-comment" class="er entityLabel"/><rect height="22" width="37.39605712890625" y="69" x="0" class="er attributeBoxOdd"/><text style="dominant-baseline: middle; font-size: 10.2px;" transform="translate(5,80)" y="0" x="0" id="text-entity-book-d404c4f3-6fe8-526d-bf6f-c8280c94ff2e-attr-3-type" class="er entityLabel">String</text><rect height="22" width="81.93240356445312" y="69" x="37.39605712890625" class="er attributeBoxOdd"/><text style="dominant-baseline: middle; font-size: 10.2px;" transform="translate(42.39605712890625,80)" y="0" x="0" id="text-entity-book-d404c4f3-6fe8-526d-bf6f-c8280c94ff2e-attr-3-name" class="er entityLabel">author</text><rect height="22" width="22.578125" y="69" x="119.32846069335938" class="er attributeBoxOdd"/><text style="dominant-baseline: middle; font-size: 10.2px;" transform="translate(124.32846069335938,80)" y="0" x="0" id="text-entity-book-d404c4f3-6fe8-526d-bf6f-c8280c94ff2e-attr-3-comment" class="er entityLabel"/><rect height="22" width="37.39605712890625" y="91" x="0" class="er attributeBoxEven"/><text style="dominant-baseline: middle; font-size: 10.2px;" transform="translate(5,102)" y="0" x="0" id="text-entity-book-d404c4f3-6fe8-526d-bf6f-c8280c94ff2e-attr-4-type" class="er entityLabel">Int</text><rect height="22" width="81.93240356445312" y="91" x="37.39605712890625" class="er attributeBoxEven"/><text style="dominant-baseline: middle; font-size: 10.2px;" transform="translate(42.39605712890625,102)" y="0" x="0" id="text-entity-book-d404c4f3-6fe8-526d-bf6f-c8280c94ff2e-attr-4-name" class="er entityLabel">publicationYear</text><rect height="22" width="22.578125" y="91" x="119.32846069335938" class="er attributeBoxEven"/><text style="dominant-baseline: middle; font-size: 10.2px;" transform="translate(124.32846069335938,102)" y="0" x="0" id="text-entity-book-d404c4f3-6fe8-526d-bf6f-c8280c94ff2e-attr-4-comment" class="er entityLabel"/><rect height="22" width="37.39605712890625" y="113" x="0" class="er attributeBoxOdd"/><text style="dominant-baseline: middle; font-size: 10.2px;" transform="translate(5,124)" y="0" x="0" id="text-entity-book-d404c4f3-6fe8-526d-bf6f-c8280c94ff2e-attr-5-type" class="er entityLabel">String</text><rect height="22" width="81.93240356445312" y="113" x="37.39605712890625" class="er attributeBoxOdd"/><text style="dominant-baseline: middle; font-size: 10.2px;" transform="translate(42.39605712890625,124)" y="0" x="0" id="text-entity-book-d404c4f3-6fe8-526d-bf6f-c8280c94ff2e-attr-5-name" class="er entityLabel">genre</text><rect height="22" width="22.578125" y="113" x="119.32846069335938" class="er attributeBoxOdd"/><text style="dominant-baseline: middle; font-size: 10.2px;" transform="translate(124.32846069335938,124)" y="0" x="0" id="text-entity-book-d404c4f3-6fe8-526d-bf6f-c8280c94ff2e-attr-5-comment" class="er entityLabel"/><rect height="22" width="37.39605712890625" y="135" x="0" class="er attributeBoxEven"/><text style="dominant-baseline: middle; font-size: 10.2px;" transform="translate(5,146)" y="0" x="0" id="text-entity-book-d404c4f3-6fe8-526d-bf6f-c8280c94ff2e-attr-6-type" class="er entityLabel">String</text><rect height="22" width="81.93240356445312" y="135" x="37.39605712890625" class="er attributeBoxEven"/><text style="dominant-baseline: middle; font-size: 10.2px;" transform="translate(42.39605712890625,146)" y="0" x="0" id="text-entity-book-d404c4f3-6fe8-526d-bf6f-c8280c94ff2e-attr-6-name" class="er entityLabel">isbn</text><rect height="22" width="22.578125" y="135" x="119.32846069335938" class="er attributeBoxEven"/><text style="dominant-baseline: middle; font-size: 10.2px;" transform="translate(124.32846069335938,146)" y="0" x="0" id="text-entity-book-d404c4f3-6fe8-526d-bf6f-c8280c94ff2e-attr-6-comment" class="er entityLabel"/><rect height="22" width="37.39605712890625" y="157" x="0" class="er attributeBoxOdd"/><text style="dominant-baseline: middle; font-size: 10.2px;" transform="translate(5,168)" y="0" x="0" id="text-entity-book-d404c4f3-6fe8-526d-bf6f-c8280c94ff2e-attr-7-type" class="er entityLabel">Int</text><rect height="22" width="81.93240356445312" y="157" x="37.39605712890625" class="er attributeBoxOdd"/><text style="dominant-baseline: middle; font-size: 10.2px;" transform="translate(42.39605712890625,168)" y="0" x="0" id="text-entity-book-d404c4f3-6fe8-526d-bf6f-c8280c94ff2e-attr-7-name" class="er entityLabel">price</text><rect height="22" width="22.578125" y="157" x="119.32846069335938" class="er attributeBoxOdd"/><text style="dominant-baseline: middle; font-size: 10.2px;" transform="translate(124.32846069335938,168)" y="0" x="0" id="text-entity-book-d404c4f3-6fe8-526d-bf6f-c8280c94ff2e-attr-7-comment" class="er entityLabel"/></g><g transform="translate(226.61289978027344,344 )" id="entity-review-e57dd146-c3b4-552a-9efc-d1c38f3bd68b"><rect height="91" width="106.25146484375" y="0" x="0" class="er entityBox"/><text style="dominant-baseline: middle; text-anchor: middle; font-size: 12px;" transform="translate(53.125732421875,12)" y="0" x="0" id="text-entity-review-e57dd146-c3b4-552a-9efc-d1c38f3bd68b" class="er entityLabel">review</text><rect height="23" width="37.39605712890625" y="24" x="0" class="er attributeBoxOdd"/><text style="dominant-baseline: middle; font-size: 10.2px;" transform="translate(5,35.5)" y="0" x="0" id="text-entity-review-e57dd146-c3b4-552a-9efc-d1c38f3bd68b-attr-1-type" class="er entityLabel">String</text><rect height="23" width="46.27728271484375" y="24" x="37.39605712890625" class="er attributeBoxOdd"/><text style="dominant-baseline: middle; font-size: 10.2px;" transform="translate(42.39605712890625,35.5)" y="0" x="0" id="text-entity-review-e57dd146-c3b4-552a-9efc-d1c38f3bd68b-attr-1-name" class="er entityLabel">id</text><rect height="23" width="22.578125" y="24" x="83.67333984375" class="er attributeBoxOdd"/><text style="dominant-baseline: middle; font-size: 10.2px;" transform="translate(88.67333984375,35.5)" y="0" x="0" id="text-entity-review-e57dd146-c3b4-552a-9efc-d1c38f3bd68b-attr-1-comment" class="er entityLabel">🗝️</text><rect height="22" width="37.39605712890625" y="47" x="0" class="er attributeBoxEven"/><text style="dominant-baseline: middle; font-size: 10.2px;" transform="translate(5,58)" y="0" x="0" id="text-entity-review-e57dd146-c3b4-552a-9efc-d1c38f3bd68b-attr-2-type" class="er entityLabel">String</text><rect height="22" width="46.27728271484375" y="47" x="37.39605712890625" class="er attributeBoxEven"/><text style="dominant-baseline: middle; font-size: 10.2px;" transform="translate(42.39605712890625,58)" y="0" x="0" id="text-entity-review-e57dd146-c3b4-552a-9efc-d1c38f3bd68b-attr-2-name" class="er entityLabel">content</text><rect height="22" width="22.578125" y="47" x="83.67333984375" class="er attributeBoxEven"/><text style="dominant-baseline: middle; font-size: 10.2px;" transform="translate(88.67333984375,58)" y="0" x="0" id="text-entity-review-e57dd146-c3b4-552a-9efc-d1c38f3bd68b-attr-2-comment" class="er entityLabel"/><rect height="22" width="37.39605712890625" y="69" x="0" class="er attributeBoxOdd"/><text style="dominant-baseline: middle; font-size: 10.2px;" transform="translate(5,80)" y="0" x="0" id="text-entity-review-e57dd146-c3b4-552a-9efc-d1c38f3bd68b-attr-3-type" class="er entityLabel">Int</text><rect height="22" width="46.27728271484375" y="69" x="37.39605712890625" class="er attributeBoxOdd"/><text style="dominant-baseline: middle; font-size: 10.2px;" transform="translate(42.39605712890625,80)" y="0" x="0" id="text-entity-review-e57dd146-c3b4-552a-9efc-d1c38f3bd68b-attr-3-name" class="er entityLabel">rating</text><rect height="22" width="22.578125" y="69" x="83.67333984375" class="er attributeBoxOdd"/><text style="dominant-baseline: middle; font-size: 10.2px;" transform="translate(88.67333984375,80)" y="0" x="0" id="text-entity-review-e57dd146-c3b4-552a-9efc-d1c38f3bd68b-attr-3-comment" class="er entityLabel"/></g><g transform="translate(227.0611343383789,836 )" id="entity-supplier-83897f16-47ad-56a4-80b2-af0c2194fa83"><rect height="113" width="105.35499572753906" y="0" x="0" class="er entityBox"/><text style="dominant-baseline: middle; text-anchor: middle; font-size: 12px;" transform="translate(52.67749786376953,12)" y="0" x="0" id="text-entity-supplier-83897f16-47ad-56a4-80b2-af0c2194fa83" class="er entityLabel">supplier</text><rect height="23" width="37.39605712890625" y="24" x="0" class="er attributeBoxOdd"/><text style="dominant-baseline: middle; font-size: 10.2px;" transform="translate(5,35.5)" y="0" x="0" id="text-entity-supplier-83897f16-47ad-56a4-80b2-af0c2194fa83-attr-1-type" class="er entityLabel">String</text><rect height="23" width="45.38081359863281" y="24" x="37.39605712890625" class="er attributeBoxOdd"/><text style="dominant-baseline: middle; font-size: 10.2px;" transform="translate(42.39605712890625,35.5)" y="0" x="0" id="text-entity-supplier-83897f16-47ad-56a4-80b2-af0c2194fa83-attr-1-name" class="er entityLabel">id</text><rect height="23" width="22.578125" y="24" x="82.77687072753906" class="er attributeBoxOdd"/><text style="dominant-baseline: middle; font-size: 10.2px;" transform="translate(87.77687072753906,35.5)" y="0" x="0" id="text-entity-supplier-83897f16-47ad-56a4-80b2-af0c2194fa83-attr-1-comment" class="er entityLabel">🗝️</text><rect height="22" width="37.39605712890625" y="47" x="0" class="er attributeBoxEven"/><text style="dominant-baseline: middle; font-size: 10.2px;" transform="translate(5,58)" y="0" x="0" id="text-entity-supplier-83897f16-47ad-56a4-80b2-af0c2194fa83-attr-2-type" class="er entityLabel">String</text><rect height="22" width="45.38081359863281" y="47" x="37.39605712890625" class="er attributeBoxEven"/><text style="dominant-baseline: middle; font-size: 10.2px;" transform="translate(42.39605712890625,58)" y="0" x="0" id="text-entity-supplier-83897f16-47ad-56a4-80b2-af0c2194fa83-attr-2-name" class="er entityLabel">name</text><rect height="22" width="22.578125" y="47" x="82.77687072753906" class="er attributeBoxEven"/><text style="dominant-baseline: middle; font-size: 10.2px;" transform="translate(87.77687072753906,58)" y="0" x="0" id="text-entity-supplier-83897f16-47ad-56a4-80b2-af0c2194fa83-attr-2-comment" class="er entityLabel"/><rect height="22" width="37.39605712890625" y="69" x="0" class="er attributeBoxOdd"/><text style="dominant-baseline: middle; font-size: 10.2px;" transform="translate(5,80)" y="0" x="0" id="text-entity-supplier-83897f16-47ad-56a4-80b2-af0c2194fa83-attr-3-type" class="er entityLabel">String</text><rect height="22" width="45.38081359863281" y="69" x="37.39605712890625" class="er attributeBoxOdd"/><text style="dominant-baseline: middle; font-size: 10.2px;" transform="translate(42.39605712890625,80)" y="0" x="0" id="text-entity-supplier-83897f16-47ad-56a4-80b2-af0c2194fa83-attr-3-name" class="er entityLabel">address</text><rect height="22" width="22.578125" y="69" x="82.77687072753906" class="er attributeBoxOdd"/><text style="dominant-baseline: middle; font-size: 10.2px;" transform="translate(87.77687072753906,80)" y="0" x="0" id="text-entity-supplier-83897f16-47ad-56a4-80b2-af0c2194fa83-attr-3-comment" class="er entityLabel"/><rect height="22" width="37.39605712890625" y="91" x="0" class="er attributeBoxEven"/><text style="dominant-baseline: middle; font-size: 10.2px;" transform="translate(5,102)" y="0" x="0" id="text-entity-supplier-83897f16-47ad-56a4-80b2-af0c2194fa83-attr-4-type" class="er entityLabel">String</text><rect height="22" width="45.38081359863281" y="91" x="37.39605712890625" class="er attributeBoxEven"/><text style="dominant-baseline: middle; font-size: 10.2px;" transform="translate(42.39605712890625,102)" y="0" x="0" id="text-entity-supplier-83897f16-47ad-56a4-80b2-af0c2194fa83-attr-4-name" class="er entityLabel">phone</text><rect height="22" width="22.578125" y="91" x="82.77687072753906" class="er attributeBoxEven"/><text style="dominant-baseline: middle; font-size: 10.2px;" transform="translate(87.77687072753906,102)" y="0" x="0" id="text-entity-supplier-83897f16-47ad-56a4-80b2-af0c2194fa83-attr-4-comment" class="er entityLabel"/></g><rect height="14" width="45.458984375" y="242.13145446777344" x="28.578563690185547" class="er relationshipLabelBox"/><text style="text-anchor: middle; dominant-baseline: middle; font-size: 12px;" y="249.13145446777344" x="51.30805587768555" id="rel1" class="er relationshipLabel">adresses</text><rect height="14" width="40.982421875" y="276.802734375" x="212.04335021972656" class="er relationshipLabelBox"/><text style="text-anchor: middle; dominant-baseline: middle; font-size: 12px;" y="283.802734375" x="232.53456115722656" id="rel2" class="er relationshipLabel">reviews</text><rect height="14" width="23.958984375" y="265.6886901855469" x="113.25723266601562" class="er relationshipLabelBox"/><text style="text-anchor: middle; dominant-baseline: middle; font-size: 12px;" y="272.6886901855469" x="125.23672485351562" id="rel3" class="er relationshipLabel">user</text><rect height="14" width="40.982421875" y="487.88226318359375" x="299.87481689453125" class="er relationshipLabelBox"/><text style="text-anchor: middle; dominant-baseline: middle; font-size: 12px;" y="494.88226318359375" x="320.36602783203125" id="rel4" class="er relationshipLabel">reviews</text><rect height="14" width="45.205078125" y="779.7222290039062" x="214.07998657226562" class="er relationshipLabelBox"/><text style="text-anchor: middle; dominant-baseline: middle; font-size: 12px;" y="786.7222290039062" x="236.68252563476562" id="rel5" class="er relationshipLabel">Supplier</text><rect height="14" width="23.958984375" y="252.07907104492188" x="294.09051513671875" class="er relationshipLabelBox"/><text style="text-anchor: middle; dominant-baseline: middle; font-size: 12px;" y="259.0790710449219" x="306.07000732421875" id="rel6" class="er relationshipLabel">user</text><rect height="14" width="26.564453125" y="487.88226318359375" x="225.8287353515625" class="er relationshipLabelBox"/><text style="text-anchor: middle; dominant-baseline: middle; font-size: 12px;" y="494.88226318359375" x="239.1109619140625" id="rel7" class="er relationshipLabel">book</text><rect height="14" width="30.6171875" y="779.7222290039062" x="307.4858703613281" class="er relationshipLabelBox"/><text style="text-anchor: middle; dominant-baseline: middle; font-size: 12px;" y="786.7222290039062" x="322.7944641113281" id="rel8" class="er relationshipLabel">books</text></svg>